<svg version="1.2" xmlns="http://www.w3.org/2000/svg" viewBox="0 0 575 588" width="575" height="588">
	<title>template</title>
	<style>
		.s0 { fill: #dda43a } 
	</style>
	<g id="ghost">
		<path id="Layer" fill-rule="evenodd" class="s0" d="m519.7 271.8c0 134.3 54.9 169.4 54.9 231.9 0 35.1-74.7 9.2-105.3 27.5-29 15.3-16.7 39.7-56.4 54.9-30.5 12.2-68.7-39.6-108.4-39.6-33.5 0-93.1 44.2-120.5 30.5-27.5-13.8-26-61.1-68.7-64.1-32-4.6-114.4 41.2-114.4 6.1 0-44.3 50.3-91.6 50.3-247.2 0-149.6 105.3-271.6 235-271.6 128.2 0 233.5 122 233.5 271.6zm-311.3-137.4c-32.1 0-56.5 29-56.5 65.7 0 35.1 24.4 65.6 56.5 65.6 24.4 0 44.2-18.3 53.4-42.8 7.6 24.5 29 42.8 53.4 42.8 30.5 0 56.5-30.5 56.5-65.6 0-36.7-26-65.7-56.5-65.7-24.4 0-45.8 16.8-53.4 41.2-9.2-24.4-29-41.2-53.4-41.2zm50.4 166.4c-62.6 0-26 83.9 0 83.9 32 0 64-83.9 0-83.9z"/>
		<path id="Layer" class="s0" d="m325.9 210.7c0 13.8-10.7 24.5-24.4 24.5-13.8 0-24.4-10.7-24.4-24.5 0-13.7 10.6-24.4 24.4-24.4 13.7 0 24.4 10.7 24.4 24.4zm-77.8 0c0 13.8-10.7 24.5-24.4 24.5-13.8 0-26-10.7-26-24.5 0-13.7 12.2-24.4 26-24.4 13.7 0 24.4 10.7 24.4 24.4z"/>
	</g>
</svg>